<svg viewBox="0 0 98 64" fill="none" xmlns="http://www.w3.org/2000/svg">
<path d="M94.9858 40.5577H92.8768C91.5789 40.5577 90.5244 39.5032 90.5244 38.2053V24.9024C90.5244 23.6045 91.5789 22.55 92.8768 22.55H94.9858C96.2836 22.55 97.3381 23.6045 97.3381 24.9024V38.2053C97.3381 39.5032 96.2836 40.5577 94.9858 40.5577Z" fill="#333333"/>
<path d="M89.3082 4.218C89.3082 1.86565 87.4425 0 85.0902 0H44.4514C41.6124 0 39.7467 2.02788 37.9622 4.13688C33.0142 10.0583 22.0636 21.9823 21.2524 23.0368C21.0902 23.199 11.843 24.4157 6.65167 25.1458C4.54267 25.3891 2.92036 27.0925 2.75813 29.2015L2.35255 48.507C1.70363 52.4816 3.97486 54.185 7.62505 54.185H84.7657L93.5262 49.967C93.4451 49.967 89.3082 4.218 89.3082 4.218Z" fill="url(#paint0_linear_178_95)"/>
<path d="M60.107 24.3346H32.8523C31.5544 24.3346 30.8244 22.7934 31.6355 21.7389L45.7496 4.94806C46.0741 4.6236 46.4796 4.38025 46.9663 4.38025H60.107C61.2426 4.38025 62.1349 5.27252 62.1349 6.40813V22.3067C62.1349 23.4424 61.2426 24.3346 60.107 24.3346Z" fill="#B7E6FC"/>
<path d="M84.1167 24.3346H68.6236C67.488 24.3346 66.5146 23.3612 66.5146 22.2256V6.48925C66.5146 5.27252 67.488 4.38025 68.6236 4.38025H82.4133C83.5489 4.38025 84.5223 5.35364 84.5223 6.48925L86.2257 22.2256C86.2257 23.3612 85.2523 24.3346 84.1167 24.3346Z" fill="#B7E6FC"/>
<path d="M1.21673 53.8605H93.4449C94.1749 53.4549 94.6616 52.6437 94.6616 51.7514V48.2635C94.6616 46.8845 93.526 45.7489 92.147 45.7489H88.9835C86.7123 40.0708 81.1965 36.0962 74.7883 36.0962C68.3802 36.0962 62.8644 40.0708 60.5932 45.7489H34.9607C32.6895 40.0708 27.2548 36.0962 20.7655 36.0962C14.2763 36.0962 8.84157 40.0708 6.57034 45.7489H2.51458C1.13561 45.7489 0 46.8845 0 48.2635V51.7514C0 52.6437 0.486692 53.4549 1.21673 53.8605Z" fill="#546E7A"/>
<path d="M20.7661 63.8376C27.6203 63.8376 33.1768 58.2812 33.1768 51.427C33.1768 44.5728 27.6203 39.0164 20.7661 39.0164C13.9119 39.0164 8.35547 44.5728 8.35547 51.427C8.35547 58.2812 13.9119 63.8376 20.7661 63.8376Z" fill="#3E2723"/>
<path d="M20.7654 56.3748C23.4981 56.3748 25.7135 54.1595 25.7135 51.4268C25.7135 48.6941 23.4981 46.4788 20.7654 46.4788C18.0327 46.4788 15.8174 48.6941 15.8174 51.4268C15.8174 54.1595 18.0327 56.3748 20.7654 56.3748Z" fill="#BDBDBD"/>
<path d="M74.8696 63.8376C81.7238 63.8376 87.2803 58.2812 87.2803 51.427C87.2803 44.5728 81.7238 39.0164 74.8696 39.0164C68.0154 39.0164 62.459 44.5728 62.459 51.427C62.459 58.2812 68.0154 63.8376 74.8696 63.8376Z" fill="#3E2723"/>
<path d="M74.8699 56.3748C77.6026 56.3748 79.8179 54.1595 79.8179 51.4268C79.8179 48.6941 77.6026 46.4788 74.8699 46.4788C72.1372 46.4788 69.9219 48.6941 69.9219 51.4268C69.9219 54.1595 72.1372 56.3748 74.8699 56.3748Z" fill="#BDBDBD"/>
<path d="M10.1394 32.2026L9.24716 34.3927C8.51712 36.1772 7.78709 36.5828 5.27251 36.5828H2.5957L2.75793 29.7691H8.35489C9.65274 29.688 10.6261 30.9047 10.1394 32.2026Z" fill="#FFF9C4"/>
<path d="M92.309 37.0697H89.1455V28.147H91.4979L92.309 37.0697Z" fill="#F44336"/>
<path opacity="0.2" d="M60.1063 6.00256C60.2685 6.00256 60.5119 6.16479 60.5119 6.40813V22.3067C60.5119 22.469 60.3497 22.7123 60.1063 22.7123H33.0949L47.0467 6.00256H60.1063ZM60.1063 4.38025H46.9656C46.4789 4.38025 46.0734 4.54248 45.7489 4.94806L31.6348 21.7389C30.8237 22.7123 31.4726 24.3346 32.8516 24.3346H60.1063C61.2419 24.3346 62.1342 23.4424 62.1342 22.3067V6.40813C62.1342 5.27252 61.2419 4.38025 60.1063 4.38025Z" fill="#424242"/>
<path opacity="0.2" d="M82.4133 6.00256C82.6566 6.00256 82.8999 6.2459 82.8999 6.48925V6.65148L84.5223 22.2256C84.5223 22.469 84.2789 22.6312 84.0356 22.6312H68.6236C68.3803 22.6312 68.137 22.3879 68.137 22.1445V6.48925C68.137 6.2459 68.3803 6.00256 68.6236 6.00256H82.4133ZM82.4133 4.38025H68.6236C67.488 4.38025 66.5146 5.35364 66.5146 6.48925V22.2256C66.5146 23.3612 67.488 24.3346 68.6236 24.3346H84.1167C85.2523 24.3346 86.2257 23.3612 86.2257 22.2256L84.5223 6.48925C84.6034 5.27252 83.63 4.38025 82.4133 4.38025Z" fill="#424242"/>
<path d="M38.8546 28.1471C38.0435 28.1471 36.5834 26.7681 35.4478 25.6325C34.4744 24.578 34.3933 22.8746 35.2855 21.7389C36.4212 20.4411 37.9623 19.2244 38.7735 19.2244C40.1525 19.2244 41.2881 20.36 41.2881 21.7389V25.7136C41.2881 27.0114 40.2336 28.1471 38.8546 28.1471Z" fill="#546E7A"/>
<path opacity="0.2" d="M85.09 1.70361C86.4689 1.70361 87.6046 2.83922 87.6046 4.21818V4.38041L89.3891 23.6047C89.4702 24.2537 89.9569 24.8215 90.6058 25.0648C90.7681 25.1459 90.9303 25.1459 91.0925 25.1459C91.5792 25.1459 92.0659 24.9026 92.3904 24.497C92.4715 24.4159 92.6337 24.2537 92.9582 24.2537H95.0672C95.3916 24.2537 95.7161 24.5781 95.7161 24.9026V38.2055C95.7161 38.53 95.3916 38.8544 95.0672 38.8544H92.9582H92.8771C92.7959 38.8544 92.7148 38.8544 92.7148 38.8544C92.3093 38.8544 91.9037 39.0167 91.5792 39.3411C91.2548 39.6656 91.0114 40.1523 91.0925 40.7201L91.5792 46.1548C91.6603 46.8037 92.0659 47.2904 92.6337 47.5338C92.8771 47.6149 93.2015 47.9393 93.2015 48.2638V51.7518C93.2015 51.914 93.1204 52.0762 93.0393 52.2385H87.199C86.3878 52.2385 85.7389 52.8063 85.5767 53.6174C84.6033 58.6466 80.142 62.2968 75.0317 62.2968C70.0025 62.2968 65.6223 58.7277 64.4867 53.8608C64.3245 53.1307 63.6755 52.5629 62.8644 52.5629H32.9328C32.1217 52.5629 31.4727 53.1307 31.3105 53.8608C30.256 58.7277 25.7947 62.2968 20.7655 62.2968C15.7364 62.2968 11.3561 58.7277 10.2205 53.8608C10.0583 53.1307 9.40938 52.5629 8.59823 52.5629H7.54373C6.81369 52.5629 6.24588 52.4818 5.67807 52.3196C5.51584 52.2385 5.35361 52.2385 5.19138 52.2385H1.86565C1.78454 52.0762 1.70342 51.914 1.70342 51.7518V48.2638C1.70342 47.8582 2.02788 47.4527 2.51458 47.4527C3.40684 47.4527 4.05577 46.7226 4.13688 45.8303L4.38023 29.2828C4.54246 27.985 5.51584 27.0116 6.81369 26.7682C9.40938 26.4438 13.0596 25.9571 16.0608 25.5515C21.9823 24.7404 21.9823 24.7404 22.4689 24.1725C22.7123 23.8481 24.5779 21.8202 26.6869 19.4679C30.6616 15.0876 36.0152 9.0851 39.1787 5.27268C41.0444 3.00145 42.5044 1.70361 44.4512 1.70361H85.09ZM85.09 0.0812988H44.4512C41.6122 0.0812988 39.7465 2.10918 37.962 4.21818C33.0139 10.1396 22.0634 22.0636 21.2522 23.1181C21.1711 23.1992 12.0051 24.4159 6.73257 25.1459C4.62357 25.3893 3.00127 27.0927 2.83904 29.2017L2.43346 45.8303C1.13561 45.9115 0 46.966 0 48.3449V51.8329C0 52.7252 0.486692 53.5363 1.21673 53.9419H5.2725C5.92142 54.1041 6.73257 54.2663 7.54373 54.2663H8.59823C9.81496 59.7822 14.763 64.0002 20.7655 64.0002C26.6869 64.0002 31.635 59.8633 32.9328 54.2663H62.7022C63.9189 59.7822 68.8669 64.0002 74.8695 64.0002C80.872 64.0002 85.9011 59.7011 87.0368 54.023H93.4449C94.1749 53.6174 94.6616 52.8063 94.6616 51.914V48.426C94.6616 47.3715 94.0127 46.4793 93.0393 46.0737L92.5526 40.639H92.7959H94.9049C96.2028 40.639 97.2573 39.5845 97.2573 38.2866V24.9026C97.2573 23.6047 96.2028 22.5502 94.9049 22.5502H92.7959C92.0659 22.5502 91.417 22.8747 90.9303 23.4425L89.1458 4.21818C89.308 1.94695 87.4423 0.0812988 85.09 0.0812988Z" fill="#424242"/>
<defs>
<linearGradient id="paint0_linear_178_95" x1="47.8842" y1="0.444431" x2="47.8842" y2="54.2255" gradientUnits="userSpaceOnUse">
<stop stop-color="#57CAFF"/>
<stop offset="0.2032" stop-color="#53C4FB"/>
<stop offset="0.4615" stop-color="#46B5F1"/>
<stop offset="0.7481" stop-color="#329BDF"/>
<stop offset="1" stop-color="#1C7ECC"/>
</linearGradient>
</defs>
</svg>
