<svg viewBox="0 0 72 64" fill="none" xmlns="http://www.w3.org/2000/svg">
<path d="M35.729 63.3533C19.919 63.3533 2.8623 53.4366 2.8623 31.6767C2.8623 9.91666 19.919 0 35.729 0C44.5123 0 52.6156 2.89 58.6223 8.16C65.1389 13.94 68.5956 22.1 68.5956 31.6767C68.5956 41.2533 65.1389 49.3566 58.6223 55.1366C52.6156 60.4066 44.4556 63.3533 35.729 63.3533Z" fill="url(#paint0_radial_178_142)"/>
<path d="M35.729 63.3533C19.919 63.3533 2.8623 53.4366 2.8623 31.6767C2.8623 9.91666 19.919 0 35.729 0C44.5123 0 52.6156 2.89 58.6223 8.16C65.1389 13.94 68.5956 22.1 68.5956 31.6767C68.5956 41.2533 65.1389 49.3566 58.6223 55.1366C52.6156 60.4066 44.4556 63.3533 35.729 63.3533Z" fill="url(#paint1_linear_178_142)"/>
<path d="M62.8664 12.8463C65.8868 17.7196 67.4621 23.5223 67.4621 29.9766C67.4621 39.5533 64.0054 47.6566 57.4888 53.4366C51.4821 58.7066 43.3221 61.6533 34.5954 61.6533C24.3614 61.6533 13.6061 57.4883 7.29346 48.654C13.3908 58.6613 24.8544 63.3533 35.7288 63.3533C44.4554 63.3533 52.6154 60.4066 58.6221 55.1366C65.1388 49.3566 68.5954 41.2533 68.5954 31.6766C68.5954 24.4573 66.6291 18.0426 62.8664 12.8463Z" fill="#EB8F00"/>
<path opacity="0.8" d="M16.5189 41.5934C21.6202 41.5934 25.7556 37.458 25.7556 32.3568C25.7556 27.2555 21.6202 23.1201 16.5189 23.1201C11.4176 23.1201 7.28223 27.2555 7.28223 32.3568C7.28223 37.458 11.4176 41.5934 16.5189 41.5934Z" fill="url(#paint2_radial_178_142)"/>
<path opacity="0.8" d="M54.599 34.4536C59.7002 34.4536 63.8356 30.3182 63.8356 25.2169C63.8356 20.1156 59.7002 15.9802 54.599 15.9802C49.4977 15.9802 45.3623 20.1156 45.3623 25.2169C45.3623 30.3182 49.4977 34.4536 54.599 34.4536Z" fill="url(#paint3_radial_178_142)"/>
<path d="M54.5988 24.0266C50.2355 28.0499 44.4555 31.2233 37.7688 32.7533C31.0822 34.2833 24.5088 33.9999 18.8422 32.2433C17.8222 31.9033 17.0855 33.2633 17.9922 33.9433C23.7155 38.1933 31.3655 40.0066 39.0155 38.1933C46.6655 36.4366 52.7855 31.5066 56.0722 25.1599C56.6388 24.1966 55.3922 23.2899 54.5988 24.0266Z" fill="#422B0D"/>
<path d="M27.172 22.78C27.172 22.78 27.1153 22.7233 27.0586 22.6667C27.002 22.61 26.8886 22.5533 26.7753 22.44C26.662 22.3833 26.5486 22.27 26.4353 22.2133C26.322 22.1 26.152 21.9867 25.982 21.8733C25.812 21.76 25.642 21.6467 25.472 21.59C25.302 21.4767 25.132 21.42 24.962 21.42C24.792 21.3633 24.6786 21.3633 24.622 21.3633C24.5653 21.3633 24.5653 21.3633 24.5086 21.3633C24.5086 21.3633 24.5086 21.3633 24.452 21.3633H24.5653L24.282 21.42C24.282 21.42 24.282 21.42 24.3386 21.42H24.282C24.2253 21.4767 24.112 21.5333 23.9986 21.59C23.8853 21.7033 23.7153 21.8167 23.602 21.93C23.4886 22.0433 23.3753 22.2133 23.262 22.3833C23.0353 22.7233 22.8653 23.0067 22.752 23.2333C22.6386 23.46 22.5253 23.5733 22.5253 23.5733L22.412 23.8C21.8453 24.7633 20.5986 25.16 19.5786 24.65C18.8986 24.31 18.502 23.6867 18.4453 23.0067C18.4453 23.0067 18.4453 22.78 18.4453 22.3833C18.502 21.9867 18.5586 21.42 18.7853 20.74C19.012 20.06 19.4086 19.21 20.1453 18.4167C20.542 18.02 20.9953 17.5667 21.562 17.2833C21.6753 17.17 21.8453 17.1133 22.0153 17.0567C22.1853 17 22.2986 16.8867 22.5253 16.83L22.8086 16.7167C22.922 16.66 23.0353 16.66 23.092 16.66L23.3753 16.6033L23.5453 16.5467H23.6586H23.772L24.0553 16.49H24.5653C24.9053 16.49 25.2453 16.49 25.5853 16.5467C26.2653 16.66 26.832 16.8867 27.342 17.1133C28.362 17.6233 28.9853 18.2467 29.4953 18.7567C29.722 19.04 29.9486 19.2667 30.062 19.4933C30.232 19.72 30.3453 19.9467 30.4586 20.1167C30.572 20.2867 30.572 20.4 30.6286 20.4567C30.6286 20.5133 30.6853 20.57 30.6853 20.57C31.082 21.59 30.5153 22.7233 29.382 23.12C28.5886 23.4033 27.7386 23.2333 27.172 22.78Z" fill="#422B0D"/>
<path d="M46.609 18.9834C46.609 18.9834 46.5523 18.9267 46.4957 18.87C46.439 18.8134 46.3257 18.7567 46.2123 18.6434C46.099 18.5867 45.9857 18.4734 45.8723 18.4167C45.759 18.3034 45.589 18.1901 45.419 18.0767C45.249 17.9634 45.079 17.8501 44.909 17.7934C44.739 17.6801 44.569 17.6234 44.399 17.6234C44.2857 17.5667 44.1723 17.5667 44.1157 17.5667C44.059 17.5667 44.059 17.5667 44.0023 17.5667H43.9457H44.059L43.7757 17.6234C43.719 17.68 43.6057 17.7367 43.4357 17.7934C43.3223 17.9067 43.209 18.02 43.039 18.1334C42.9257 18.2467 42.8123 18.4167 42.699 18.5867C42.4723 18.9267 42.3023 19.21 42.189 19.4367C42.0757 19.6634 41.9623 19.7767 41.9623 19.7767L41.849 19.9467C41.2823 20.91 40.0357 21.3067 39.0157 20.7967C38.3357 20.4567 37.939 19.8334 37.8823 19.1534C37.8823 19.1534 37.8823 18.9267 37.939 18.53C37.9957 18.1334 38.0523 17.5667 38.279 16.8867C38.5057 16.2067 38.9023 15.3567 39.639 14.5634C40.0357 14.1667 40.489 13.7134 41.0557 13.4301C41.169 13.3734 41.339 13.2601 41.509 13.2034C41.679 13.1467 41.7923 13.0334 42.019 12.9767L42.359 12.8634C42.4723 12.8067 42.5857 12.8067 42.6423 12.8067L42.9257 12.7501L43.0957 12.6934H43.209H43.3223L43.6057 12.6367H44.1157C44.4557 12.6367 44.7957 12.6367 45.1357 12.6934C45.8157 12.8067 46.3823 13.0334 46.8923 13.2601C47.9123 13.7701 48.5357 14.3934 49.0456 14.9034C49.2723 15.1867 49.499 15.4134 49.6123 15.64C49.7823 15.8667 49.8957 16.0934 50.009 16.2634C50.1223 16.4334 50.1223 16.5467 50.179 16.6034C50.2356 16.66 50.2356 16.7167 50.2356 16.7167C50.6323 17.7367 50.0657 18.87 48.9323 19.2667C48.0257 19.6634 47.1757 19.4934 46.609 18.9834Z" fill="#422B0D"/>
<path opacity="0.66" d="M21.7149 43.8937C21.0973 42.1484 20.6553 60.2251 20.6553 60.2251C22.3099 60.9221 23.9816 61.5341 25.7156 61.9987C26.4013 60.4517 27.2966 57.6014 26.8263 54.3714C26.0669 49.2091 22.9843 47.4921 21.7149 43.8937Z" fill="url(#paint4_linear_178_142)"/>
<path d="M22.0721 42.0635C21.7944 41.3098 21.4431 40.7488 20.5534 40.7488C20.1454 40.7488 19.4541 40.8508 19.0858 41.4118C18.3604 42.4998 18.6438 44.5398 19.1991 46.3135C19.5108 47.3165 19.4258 47.6848 19.4258 47.6848C17.8844 47.5885 16.0938 45.4861 14.3088 43.3895C13.2151 42.1031 12.5804 40.9188 11.5151 39.6041C10.8691 38.8051 9.92278 38.0005 8.81211 38.4085C5.76911 39.5361 9.53178 43.9165 10.4724 45.1178C11.5434 46.4835 12.6031 47.7925 12.6031 47.7925C11.6058 47.5601 10.9768 47.2938 9.22011 45.4918C7.71845 43.9505 6.60211 41.9615 5.78611 41.2191C3.93312 39.5361 2.79978 40.0858 2.30678 41.2078C1.84778 42.2505 2.60712 44.0921 3.12278 44.9535C5.67845 49.1921 8.94245 50.8525 8.94245 50.8525C6.25645 50.7335 4.13712 47.8548 3.28145 46.9821C0.79945 44.4605 -0.333883 47.5828 1.02045 49.8438C1.64378 50.8808 2.26712 51.6118 3.40612 52.7848C5.24778 54.6718 6.98178 55.5275 6.98178 55.5275C6.98178 55.5275 6.23945 55.6408 5.49145 55.2498C4.48278 54.7228 3.35512 53.9295 2.77145 53.4761C1.09978 52.1898 -0.492549 53.2948 0.147784 55.0061C0.890117 56.9838 3.59878 58.6611 5.23645 59.8795C8.42111 62.2368 12.3934 64.1238 16.4168 63.9935C20.8934 63.8518 23.9761 60.7748 25.1888 56.4511C25.8914 53.9351 24.2141 49.9345 23.7891 48.9258C22.3894 45.6618 22.3498 42.8171 22.0721 42.0635Z" fill="url(#paint5_radial_178_142)"/>
<path d="M13.0734 52.1788C13.1528 56.9275 16.1334 58.9108 18.4454 59.3472C17.5161 57.9928 17.0344 56.3382 17.0911 54.7005C17.1478 53.0572 17.7824 51.0115 18.7231 49.9008C19.6638 48.7902 19.4258 47.6965 19.4258 47.6965C19.4258 47.6965 18.7911 47.6455 18.5531 47.5039C17.7938 47.0392 16.9211 46.6652 16.2638 46.0588C15.7821 45.6112 12.9941 47.4302 13.0734 52.1788Z" fill="url(#paint6_radial_178_142)"/>
<path d="M3.31554 40.5396C2.85087 40.8399 2.59587 41.3555 2.59021 41.8712C2.57887 42.3869 2.73187 42.9025 2.91887 43.3899C3.31554 44.3702 3.93887 45.2485 4.57921 46.0929C5.23654 46.9315 5.94487 47.7419 6.68154 48.5239C7.41821 49.3115 8.17187 50.0879 8.93687 50.8642C7.99054 50.3089 7.11221 49.6402 6.30187 48.9035C5.49721 48.1612 4.73221 47.3565 4.08621 46.4612C3.42321 45.5715 2.89621 44.5799 2.55054 43.5145C2.39187 42.9819 2.27854 42.4095 2.37487 41.8429C2.44287 41.2819 2.80554 40.7436 3.31554 40.5396Z" fill="url(#paint7_linear_178_142)"/>
<path d="M0.000488281 54.2132C0.0174883 54.0546 0.0401549 53.9186 0.0684882 53.7996C0.0288216 53.9299 0.00615494 54.0659 0.000488281 54.2132Z" fill="url(#paint8_radial_178_142)"/>
<path d="M2.13119 56.542C1.72319 56.151 1.44553 55.8223 1.23586 55.4767C0.997859 55.08 0.861859 54.6607 0.850525 54.2697C0.839192 53.8333 0.878859 53.5103 1.29253 53.193C1.49653 53.0343 2.06886 53.091 2.05752 53.0853C2.05186 53.0797 2.04052 53.0797 2.03486 53.074C1.68919 52.938 1.36619 52.904 1.07719 52.9493C1.07719 52.9493 1.07719 52.9493 1.08286 52.9437L1.07719 52.9493C0.589859 53.0287 0.215859 53.3403 0.0685258 53.7993C0.0401925 53.9183 0.0175258 54.0543 0.000525842 54.213C-0.00514082 54.4567 0.0345258 54.7287 0.142192 55.0177C0.306526 55.454 0.572859 55.879 0.895859 56.287C1.08853 56.5817 1.31519 56.8593 1.52486 57.1257C1.85919 57.5223 2.19919 57.9133 2.57886 58.2647C3.32119 58.99 4.14286 59.6247 5.01552 60.18C5.44052 60.4407 9.64519 63.019 13.3285 63.7273C13.3399 63.716 6.30752 60.8147 2.13119 56.542Z" fill="url(#paint9_linear_178_142)"/>
<path d="M7.19692 55.8336C7.15725 55.8336 7.11192 55.8279 7.07792 55.8109C6.18258 55.4369 5.29292 54.9043 4.35225 54.1789C3.49092 53.4933 2.72592 52.7453 2.07992 51.9633C1.71725 51.5439 1.39425 51.0849 1.13358 50.694L1.05425 50.5693C0.787918 50.1556 0.515918 49.7306 0.345919 49.2319C0.124919 48.6426 0.0682521 48.0363 0.192919 47.4753C0.334585 46.801 0.719918 46.342 1.25825 46.1096C2.02892 45.7753 2.89025 46.6253 2.83925 46.6026C2.24425 46.3363 1.72292 46.4836 1.58692 46.5743C1.27525 46.7896 1.07692 47.1636 1.03725 47.6C1.00892 47.991 1.09958 48.4216 1.29792 48.841C1.46792 49.2093 1.70592 49.5663 2.07425 49.997C2.39158 50.405 2.72025 50.779 3.04325 51.1473C3.72325 51.9123 4.42592 52.6263 5.12858 53.2836C5.73492 53.8446 6.53958 54.5756 7.40658 55.2669C7.53125 55.3633 7.56525 55.5389 7.48025 55.6749C7.41225 55.7769 7.31025 55.8336 7.19692 55.8336Z" fill="url(#paint10_linear_178_142)"/>
<path d="M9.19736 50.9489C9.30502 50.8299 9.28236 50.7562 9.16902 50.6429C8.32469 49.7872 7.58803 49.0222 6.91936 48.3082C6.14303 47.4866 5.46303 46.6989 4.83969 45.9056C4.22203 45.0952 3.59869 44.2226 3.21336 43.2762C3.06603 42.8909 2.89603 42.3809 2.90736 41.8766C2.90736 41.6499 2.96969 41.4402 3.07169 41.2532C3.16803 41.0776 3.30969 40.9246 3.48536 40.8112C3.49103 40.8112 3.49103 40.8056 3.49103 40.8056C3.78003 40.6299 4.25036 40.4996 5.00403 40.6299C3.68369 39.7402 2.69203 40.2446 2.27269 41.2022C1.81369 42.2449 2.59569 44.1092 3.11703 44.9706C5.67269 49.2092 8.79502 50.9036 8.79502 50.9036C8.94802 50.9999 9.11802 51.0282 9.19736 50.9489Z" fill="url(#paint11_linear_178_142)"/>
<path d="M13.0283 47.9454C12.0707 46.6761 8.22866 42.6471 8.325 40.0121C8.35333 39.1677 9.702 38.3007 11.0507 39.0884C11.0677 39.0997 10.0647 37.9551 8.80666 38.4027C7.713 38.7881 7.55433 39.7967 7.543 39.9781C7.48633 40.5504 7.645 41.1001 7.798 41.5194C8.11533 42.3127 8.51766 43.0834 9.09566 44.0071C9.52633 44.7097 10.0307 45.4237 10.6767 46.2681C11.0337 46.7271 11.3963 47.1464 11.7647 47.5431C12.014 47.8151 12.269 48.0757 12.5297 48.3307C12.592 48.3874 12.6713 48.4214 12.7507 48.4214C12.8187 48.4214 12.8867 48.3987 12.9433 48.359C13.0623 48.257 13.119 48.0701 13.0283 47.9454Z" fill="url(#paint12_linear_178_142)"/>
<path d="M20.5537 40.7549C20.1457 40.7549 19.4543 40.8569 19.086 41.4179C18.3607 42.5059 18.644 44.5459 19.1993 46.3195C19.29 46.6085 19.3467 46.8409 19.3807 47.0335C19.4487 47.3849 19.1087 47.6682 18.78 47.5435C17.3917 47.0222 15.8503 45.2032 14.309 43.3956C14.2297 43.2992 14.156 43.2086 14.0767 43.1122C14.0937 43.3729 14.9777 44.7896 16.1847 46.3139C16.5077 46.7275 18.6553 49.0679 19.8 48.3992C20.5083 47.9912 19.3523 44.8179 19.341 43.9962C19.3353 43.5485 19.273 42.9705 19.4147 42.4379C19.443 42.3019 19.528 42.1602 19.6357 42.0186C20.2533 41.1912 21.534 41.1572 22.061 42.0469L22.078 42.0695C21.7947 41.3102 21.4433 40.7549 20.5537 40.7549Z" fill="url(#paint13_linear_178_142)"/>
<path opacity="0.66" d="M49.7311 43.8937C50.3488 42.1484 50.7908 60.2251 50.7908 60.2251C49.1361 60.9221 47.4645 61.5341 45.7305 61.9987C45.0448 60.4517 44.1495 57.6014 44.6198 54.3714C45.3791 49.2091 48.4561 47.4921 49.7311 43.8937Z" fill="url(#paint14_linear_178_142)"/>
<path d="M49.3744 42.0635C49.6521 41.3098 50.0034 40.7488 50.8931 40.7488C51.3011 40.7488 51.9924 40.8508 52.3607 41.4118C53.0861 42.4998 52.8027 44.5398 52.2474 46.3135C51.9357 47.3165 52.0207 47.6848 52.0207 47.6848C53.5621 47.5885 55.3527 45.4861 57.1377 43.3895C58.2314 42.1031 58.8661 40.9188 59.9314 39.6041C60.5774 38.8051 61.5237 38.0005 62.6344 38.4085C65.6774 39.5361 61.9147 43.9165 60.9741 45.1178C59.9031 46.4835 58.8434 47.7925 58.8434 47.7925C59.8407 47.5601 60.4697 47.2938 62.2264 45.4918C63.7281 43.9505 64.8444 41.9615 65.6604 41.2191C67.5134 39.5361 68.6467 40.0858 69.1397 41.2078C69.5987 42.2505 68.8394 44.0921 68.3237 44.9535C65.7681 49.1921 62.5041 50.8525 62.5041 50.8525C65.1901 50.7335 67.3094 47.8548 68.1651 46.9821C70.6471 44.4605 71.7804 47.5828 70.4261 49.8438C69.8027 50.8808 69.1794 51.6118 68.0404 52.7848C66.1987 54.6718 64.4647 55.5275 64.4647 55.5275C64.4647 55.5275 65.2071 55.6408 65.9551 55.2498C66.9637 54.7228 68.0914 53.9295 68.6751 53.4761C70.3467 52.1898 71.9391 53.2948 71.2987 55.0061C70.5564 56.9838 67.8477 58.6611 66.2101 59.8795C63.0254 62.2368 59.0531 64.1238 55.0297 63.9935C50.5531 63.8518 47.4704 60.7748 46.2578 56.4511C45.5551 53.9351 47.2324 49.9345 47.6574 48.9258C49.0514 45.6618 49.0967 42.8171 49.3744 42.0635Z" fill="url(#paint15_radial_178_142)"/>
<path d="M58.3729 52.1788C58.2935 56.9275 55.3129 58.9108 53.0009 59.3472C53.9302 57.9928 54.4119 56.3382 54.3552 54.7005C54.2985 53.0572 53.6639 51.0115 52.7232 49.9008C51.7825 48.7902 52.0205 47.6965 52.0205 47.6965C52.0205 47.6965 52.6552 47.6455 52.8932 47.5039C53.6525 47.0392 54.5252 46.6652 55.1825 46.0588C55.6585 45.6112 58.4522 47.4302 58.3729 52.1788Z" fill="url(#paint16_radial_178_142)"/>
<path d="M68.1254 40.5396C68.5901 40.8399 68.8451 41.3555 68.8508 41.8712C68.8678 42.3925 68.7148 42.9025 68.5278 43.3899C68.1311 44.3702 67.5078 45.2485 66.8674 46.0929C66.2101 46.9315 65.5018 47.7419 64.7651 48.5239C64.0284 49.3115 63.2748 50.0879 62.5098 50.8642C63.4561 50.3089 64.3344 49.6402 65.1448 48.9035C65.9494 48.1612 66.7144 47.3565 67.3604 46.4612C68.0234 45.5715 68.5504 44.5799 68.8961 43.5145C69.0548 42.9819 69.1681 42.4095 69.0718 41.8429C68.9981 41.2819 68.6411 40.7436 68.1254 40.5396Z" fill="url(#paint17_linear_178_142)"/>
<path d="M71.4459 54.2132C71.4289 54.0546 71.4063 53.9186 71.3779 53.7996C71.4119 53.9299 71.4403 54.0659 71.4459 54.2132Z" fill="url(#paint18_radial_178_142)"/>
<path d="M69.3096 56.542C69.7176 56.151 69.9953 55.8223 70.205 55.4767C70.443 55.08 70.579 54.6607 70.5903 54.2697C70.6016 53.8333 70.562 53.5103 70.1483 53.193C69.9443 53.0343 69.372 53.091 69.3833 53.0853C69.389 53.0797 69.4003 53.0797 69.406 53.074C69.7516 52.938 70.0746 52.904 70.3636 52.9493C70.3636 52.9493 70.3636 52.9493 70.358 52.9437L70.3636 52.9493C70.851 53.0287 71.225 53.3403 71.3723 53.7993C71.4006 53.9183 71.4233 54.0543 71.4403 54.213C71.446 54.4567 71.4063 54.7287 71.2986 55.0177C71.1343 55.454 70.868 55.879 70.545 56.287C70.3523 56.5817 70.1256 56.8593 69.916 57.1257C69.5816 57.5223 69.2416 57.9133 68.862 58.2647C68.1196 58.99 67.298 59.6247 66.4253 60.18C66.0003 60.4407 61.7956 63.019 58.1123 63.7273C58.1066 63.716 65.139 60.8147 69.3096 56.542Z" fill="url(#paint19_linear_178_142)"/>
<path d="M64.2435 55.8336C64.2832 55.8336 64.3285 55.8279 64.3625 55.8109C65.2579 55.4369 66.1475 54.9043 67.0882 54.1789C67.9495 53.4933 68.7145 52.7453 69.3605 51.9633C69.7232 51.5439 70.0462 51.0849 70.3069 50.694L70.3862 50.5693C70.6525 50.1556 70.9245 49.7306 71.0945 49.2319C71.3155 48.6426 71.3722 48.0363 71.2475 47.4753C71.1059 46.801 70.7205 46.342 70.1822 46.1096C69.4115 45.7753 68.5502 46.6253 68.6012 46.6026C69.1962 46.3363 69.7175 46.4836 69.8535 46.5743C70.1652 46.7896 70.3692 47.1636 70.4089 47.6C70.4372 47.991 70.3465 48.4216 70.1482 48.841C69.9782 49.2093 69.7402 49.5663 69.3719 49.997C69.0545 50.405 68.7259 50.779 68.4029 51.1473C67.7229 51.9123 67.0202 52.6263 66.3175 53.2836C65.7112 53.8446 64.9065 54.5756 64.0395 55.2669C63.9149 55.3633 63.8809 55.5389 63.9659 55.6749C64.0282 55.7769 64.1359 55.8336 64.2435 55.8336Z" fill="url(#paint20_linear_178_142)"/>
<path d="M62.249 50.9487C62.1413 50.8297 62.164 50.7561 62.2773 50.6427C63.1217 49.7871 63.8583 49.0221 64.527 48.3081C65.3033 47.4864 65.9833 46.6987 66.6067 45.9054C67.2187 45.1007 67.842 44.2281 68.2273 43.2817C68.3747 42.8964 68.5447 42.3864 68.5333 41.8821C68.5333 41.6554 68.471 41.4457 68.369 41.2587C68.2727 41.0831 68.131 40.9301 67.9553 40.8167C67.9497 40.8167 67.9497 40.8111 67.9497 40.8111C67.6607 40.6354 67.1903 40.5051 66.4367 40.6354C67.757 39.7457 68.7487 40.2501 69.168 41.2077C69.627 42.2504 68.845 44.1147 68.3237 44.9761C65.768 49.2147 62.6457 50.9091 62.6457 50.9091C62.4983 50.9997 62.3227 51.0281 62.249 50.9487Z" fill="url(#paint21_linear_178_142)"/>
<path d="M58.4182 47.9454C59.3759 46.6761 63.2179 42.6471 63.1215 40.0121C63.0932 39.1677 61.7445 38.3007 60.3959 39.0884C60.3789 39.0997 61.3819 37.9551 62.6399 38.4027C63.7335 38.7881 63.8922 39.7967 63.9035 39.9781C63.9602 40.5504 63.8015 41.1001 63.6485 41.5194C63.3312 42.3127 62.9289 43.0834 62.3509 44.0071C61.9202 44.7097 61.4159 45.4237 60.7699 46.2681C60.4129 46.7271 60.0502 47.1464 59.6819 47.5431C59.4325 47.8151 59.1775 48.0757 58.9169 48.3307C58.8545 48.3874 58.7752 48.4214 58.6959 48.4214C58.6279 48.4214 58.5599 48.3987 58.5032 48.359C58.3785 48.257 58.3219 48.0701 58.4182 47.9454Z" fill="url(#paint22_linear_178_142)"/>
<path d="M50.893 40.7549C51.301 40.7549 51.9923 40.8569 52.3607 41.4179C53.086 42.5059 52.8027 44.5459 52.2473 46.3195C52.1567 46.6085 52.1 46.8409 52.066 47.0335C51.998 47.3849 52.338 47.6682 52.6667 47.5435C54.055 47.0222 55.5963 45.2032 57.1376 43.3956C57.217 43.2992 57.2906 43.2086 57.37 43.1122C57.353 43.3729 56.469 44.7896 55.262 46.3139C54.939 46.7275 52.7913 49.0679 51.6467 48.3992C50.9383 47.9912 52.0943 44.8179 52.1057 43.9962C52.1113 43.5485 52.1737 42.9705 52.032 42.4379C52.0037 42.3019 51.9187 42.1602 51.811 42.0186C51.1933 41.1912 49.9127 41.1572 49.3857 42.0469L49.3687 42.0695C49.652 41.3102 49.9977 40.7549 50.893 40.7549Z" fill="url(#paint23_linear_178_142)"/>
<defs>
<radialGradient id="paint0_radial_178_142" cx="0" cy="0" r="1" gradientUnits="userSpaceOnUse" gradientTransform="translate(35.729 31.6766) scale(32.2771 32.2771)">
<stop offset="0.5" stop-color="#FDE030"/>
<stop offset="0.9188" stop-color="#F7C02B"/>
<stop offset="1" stop-color="#F4A223"/>
</radialGradient>
<linearGradient id="paint1_linear_178_142" x1="35.729" y1="63.3533" x2="35.729" y2="0" gradientUnits="userSpaceOnUse">
<stop offset="0.1579" stop-color="#F4A223"/>
<stop offset="0.333" stop-color="#F7C02B"/>
<stop offset="0.8071" stop-color="#FDE030" stop-opacity="0"/>
</linearGradient>
<radialGradient id="paint2_radial_178_142" cx="0" cy="0" r="1" gradientUnits="userSpaceOnUse" gradientTransform="translate(16.4994 32.3604) rotate(-10.6121) scale(10.051 9.54863)">
<stop stop-color="#ED7770"/>
<stop offset="0.9" stop-color="#ED7770" stop-opacity="0"/>
</radialGradient>
<radialGradient id="paint3_radial_178_142" cx="0" cy="0" r="1" gradientUnits="userSpaceOnUse" gradientTransform="translate(54.6026 25.2364) rotate(-10.6121) scale(10.0499 9.54763)">
<stop stop-color="#ED7770"/>
<stop offset="0.9" stop-color="#ED7770" stop-opacity="0"/>
</radialGradient>
<linearGradient id="paint4_linear_178_142" x1="23.8035" y1="68.6733" x2="23.8035" y2="51.1676" gradientUnits="userSpaceOnUse">
<stop stop-color="#BF360C"/>
<stop offset="1" stop-color="#BF360C" stop-opacity="0.2"/>
</linearGradient>
<radialGradient id="paint5_radial_178_142" cx="0" cy="0" r="1" gradientUnits="userSpaceOnUse" gradientTransform="translate(16.2272 49.2238) scale(22.0455)">
<stop offset="0.3302" stop-color="#FFF176"/>
<stop offset="1" stop-color="#FFC400"/>
</radialGradient>
<radialGradient id="paint6_radial_178_142" cx="0" cy="0" r="1" gradientUnits="userSpaceOnUse" gradientTransform="translate(20.5391 54.0882) rotate(-42.2887) scale(6.64585 6.65479)">
<stop stop-color="#FFC709"/>
<stop offset="1" stop-color="#FFC709" stop-opacity="0"/>
</radialGradient>
<linearGradient id="paint7_linear_178_142" x1="10.1818" y1="50.0116" x2="2.99056" y2="42.9396" gradientUnits="userSpaceOnUse">
<stop offset="0.1273" stop-color="#B7537A"/>
<stop offset="1" stop-color="#FFC400"/>
</linearGradient>
<radialGradient id="paint8_radial_178_142" cx="0" cy="0" r="1" gradientUnits="userSpaceOnUse" gradientTransform="translate(16.2273 49.2243) scale(22.0455 22.0453)">
<stop offset="0.3302" stop-color="#FFF176"/>
<stop offset="1" stop-color="#FFC400"/>
</radialGradient>
<linearGradient id="paint9_linear_178_142" x1="0.000242508" y1="58.3297" x2="13.3306" y2="58.3297" gradientUnits="userSpaceOnUse">
<stop offset="0.1273" stop-color="#DA6727"/>
<stop offset="1" stop-color="#FFC400"/>
</linearGradient>
<linearGradient id="paint10_linear_178_142" x1="0.129849" y1="50.93" x2="7.51748" y2="50.93" gradientUnits="userSpaceOnUse">
<stop offset="0.1273" stop-color="#DA6727"/>
<stop offset="1" stop-color="#FFC400"/>
</linearGradient>
<linearGradient id="paint11_linear_178_142" x1="1.99752" y1="45.5787" x2="9.26615" y2="45.5787" gradientUnits="userSpaceOnUse">
<stop offset="0.1273" stop-color="#DA6727"/>
<stop offset="1" stop-color="#FFC400"/>
</linearGradient>
<linearGradient id="paint12_linear_178_142" x1="7.38767" y1="43.3569" x2="13.0735" y2="43.3569" gradientUnits="userSpaceOnUse">
<stop offset="0.1273" stop-color="#DA6727"/>
<stop offset="1" stop-color="#FFC400"/>
</linearGradient>
<linearGradient id="paint13_linear_178_142" x1="14.0789" y1="44.6326" x2="22.6952" y2="44.6326" gradientUnits="userSpaceOnUse">
<stop stop-color="#FFC400"/>
<stop offset="0.8727" stop-color="#DA6727"/>
</linearGradient>
<linearGradient id="paint14_linear_178_142" x1="47.6409" y1="68.6733" x2="47.6409" y2="51.1676" gradientUnits="userSpaceOnUse">
<stop stop-color="#BF360C"/>
<stop offset="1" stop-color="#BF360C" stop-opacity="0.2"/>
</linearGradient>
<radialGradient id="paint15_radial_178_142" cx="0" cy="0" r="1" gradientUnits="userSpaceOnUse" gradientTransform="translate(55.2177 49.2238) rotate(180) scale(22.0455)">
<stop offset="0.3302" stop-color="#FFF176"/>
<stop offset="1" stop-color="#FFC400"/>
</radialGradient>
<radialGradient id="paint16_radial_178_142" cx="0" cy="0" r="1" gradientUnits="userSpaceOnUse" gradientTransform="translate(50.9258 54.1181) rotate(-137.711) scale(6.64585 6.65479)">
<stop stop-color="#FFC709"/>
<stop offset="1" stop-color="#FFC709" stop-opacity="0"/>
</radialGradient>
<linearGradient id="paint17_linear_178_142" x1="61.2632" y1="50.0116" x2="68.4544" y2="42.9396" gradientUnits="userSpaceOnUse">
<stop offset="0.1273" stop-color="#B7537A"/>
<stop offset="1" stop-color="#FFC400"/>
</linearGradient>
<radialGradient id="paint18_radial_178_142" cx="0" cy="0" r="1" gradientUnits="userSpaceOnUse" gradientTransform="translate(55.2182 49.2243) rotate(180) scale(22.0446 22.0453)">
<stop offset="0.3302" stop-color="#FFF176"/>
<stop offset="1" stop-color="#FFC400"/>
</radialGradient>
<linearGradient id="paint19_linear_178_142" x1="71.4446" y1="58.3297" x2="58.1142" y2="58.3297" gradientUnits="userSpaceOnUse">
<stop offset="0.1273" stop-color="#DA6727"/>
<stop offset="1" stop-color="#FFC400"/>
</linearGradient>
<linearGradient id="paint20_linear_178_142" x1="71.3146" y1="50.93" x2="63.9269" y2="50.93" gradientUnits="userSpaceOnUse">
<stop offset="0.1273" stop-color="#DA6727"/>
<stop offset="1" stop-color="#FFC400"/>
</linearGradient>
<linearGradient id="paint21_linear_178_142" x1="69.4473" y1="45.5785" x2="62.1786" y2="45.5785" gradientUnits="userSpaceOnUse">
<stop offset="0.1273" stop-color="#DA6727"/>
<stop offset="1" stop-color="#FFC400"/>
</linearGradient>
<linearGradient id="paint22_linear_178_142" x1="64.0572" y1="43.3569" x2="58.3714" y2="43.3569" gradientUnits="userSpaceOnUse">
<stop offset="0.1273" stop-color="#DA6727"/>
<stop offset="1" stop-color="#FFC400"/>
</linearGradient>
<linearGradient id="paint23_linear_178_142" x1="57.3661" y1="44.6326" x2="48.7498" y2="44.6326" gradientUnits="userSpaceOnUse">
<stop stop-color="#FFC400"/>
<stop offset="0.8727" stop-color="#DA6727"/>
</linearGradient>
</defs>
</svg>
