<svg width="1829" height="1080" viewBox="0 0 1829 1080" fill="none" xmlns="http://www.w3.org/2000/svg">
<path d="M278.5 849C427.341 849 548 728.341 548 579.5C548 430.659 427.341 310 278.5 310C129.659 310 9 430.659 9 579.5C9 728.341 129.659 849 278.5 849Z" fill="#EE661A"/>
<path d="M1327.5 614C1387.42 614 1436 565.423 1436 505.5C1436 445.577 1387.42 397 1327.5 397C1267.58 397 1219 445.577 1219 505.5C1219 565.423 1267.58 614 1327.5 614Z" fill="#EE661A"/>
<path d="M1758.5 1059C1791.36 1059 1818 1032.36 1818 999.5C1818 966.639 1791.36 940 1758.5 940C1725.64 940 1699 966.639 1699 999.5C1699 1032.36 1725.64 1059 1758.5 1059Z" fill="#EE661A"/>
<path d="M703 407C781.977 407 846 342.977 846 264C846 185.023 781.977 121 703 121C624.023 121 560 185.023 560 264C560 342.977 624.023 407 703 407Z" fill="#EE661A"/>
</svg>
