<svg viewBox="0 0 64 64" fill="none" xmlns="http://www.w3.org/2000/svg">
<path d="M52.9531 9.01333L60.3823 1.49353C60.4303 1.44553 60.4836 1.4082 60.5369 1.38154L63.1182 0.0749034C63.7315 -0.234422 64.2968 0.565557 63.8168 1.05621L54.4518 10.5333L52.9531 9.01333Z" fill="url(#paint0_linear_178_114)"/>
<path opacity="0.2" d="M62.4249 1.31742L54.4518 9.39187L54.0784 9.01322L60.9262 2.07473L62.4249 1.31742ZM63.3955 0.00012207C63.3049 0.00012207 63.2142 0.0214549 63.1182 0.0694536L60.5369 1.37609C60.4783 1.40808 60.4249 1.44542 60.3823 1.48808L52.9531 9.01322L54.4518 10.5332L63.8115 1.05076C64.2275 0.634772 63.8808 0.00012207 63.3955 0.00012207Z" fill="#424242"/>
<path d="M16.602 51.1562L12.8581 47.359L3.47168 56.8681L7.22091 60.66L16.602 51.1562Z" fill="url(#paint1_linear_178_114)"/>
<path d="M56.3287 9.39173L54.0781 7.11445C53.6621 6.69313 52.9954 6.69313 52.5794 7.11445L45.001 14.7623L48.7502 18.5595L56.3287 10.917C56.7393 10.4957 56.7393 9.81305 56.3287 9.39173Z" fill="url(#paint2_linear_178_114)"/>
<path opacity="0.2" d="M53.3261 8.6343L54.8247 10.1489L48.7502 16.2768L47.2516 14.7621L53.3261 8.6343ZM53.3314 6.79968C53.0594 6.79968 52.7874 6.90635 52.5794 7.11434L45.001 14.7621L48.7502 18.5594L56.3287 10.9169C56.7447 10.4956 56.7447 9.81827 56.3287 9.39695L54.0781 7.11967C53.8701 6.90635 53.5981 6.79968 53.3314 6.79968Z" fill="#424242"/>
<path opacity="0.2" d="M15.9727 46.4841L17.4713 47.9988L7.21558 58.3825L5.71695 56.8625L15.9727 46.4841ZM15.9727 44.2015L3.47168 56.8625L7.22091 60.6598L19.7219 47.9988L15.9727 44.2015Z" fill="#424242"/>
<path d="M20.6657 53.7269C20.2443 54.1536 19.5724 54.1589 19.1564 53.7376L10.1593 44.6285C9.74328 44.2072 9.74862 43.5245 10.1699 43.0979L24.3989 28.6823L34.8893 39.3113L20.6657 53.7269Z" fill="url(#paint3_linear_178_114)"/>
<path d="M24.3994 28.6817L44.5269 8.29296C44.9482 7.8663 45.6202 7.86097 46.0362 8.28229L55.0279 17.3914C55.4439 17.8127 55.4386 18.4954 55.0173 18.922L34.8951 39.3108L24.3994 28.6817Z" fill="url(#paint4_linear_178_114)"/>
<path d="M13.2635 59.817L4.12774 50.5586C3.71175 50.1372 2.9491 50.2332 2.42645 50.7666L0.463834 52.7505C-0.064152 53.2838 -0.154816 54.0571 0.261173 54.4731L9.40226 63.7369C9.81825 64.1582 10.5809 64.0622 11.1036 63.5289L13.0662 61.5449C13.5888 61.0116 13.6795 60.2383 13.2635 59.817Z" fill="url(#paint5_linear_178_114)"/>
<path opacity="0.3" d="M30.0953 37.4874L16.6023 51.1563L12.8584 47.3591L26.346 33.6901L22.9008 30.2022L24.3994 28.6823L34.8951 39.3113L33.3965 40.8313L30.0953 37.4874Z" fill="#C5CAE9"/>
<path opacity="0.2" d="M3.37576 52.079L11.7649 60.5801L10.1436 62.2174L1.7598 53.7163L3.37576 52.079ZM3.46109 50.2924C3.11443 50.2924 2.73044 50.4524 2.42645 50.7617L0.463834 52.7456C-0.064152 53.2789 -0.154816 54.0523 0.261173 54.4682L9.40226 63.732C9.57826 63.908 9.81292 63.9933 10.0689 63.9933C10.4156 63.9933 10.7996 63.8333 11.1036 63.524L13.0662 61.5401C13.5942 61.0067 13.6848 60.2334 13.2688 59.8174L4.12774 50.559C3.95174 50.3777 3.71708 50.2924 3.46109 50.2924Z" fill="#424242"/>
<path opacity="0.7" d="M33.3372 30.2551L28.084 24.9326L27.332 25.6953L32.5906 31.0125L33.3372 30.2551Z" fill="#EEEEEE"/>
<path opacity="0.7" d="M32.5909 24.9432L30.335 22.6553L29.583 23.4126L31.8389 25.7005L32.5909 24.9432Z" fill="#EEEEEE"/>
<path opacity="0.7" d="M37.844 25.7006L32.5855 20.3781L31.8389 21.1354L37.0921 26.4579L37.844 25.7006Z" fill="#EEEEEE"/>
<path opacity="0.7" d="M37.0915 20.3833L34.8355 18.1007L34.0889 18.858L36.3448 21.146L37.0915 20.3833Z" fill="#EEEEEE"/>
<path opacity="0.7" d="M42.345 21.146L37.0865 15.8235L36.3398 16.5808L41.5984 21.9033L42.345 21.146Z" fill="#EEEEEE"/>
<path opacity="0.7" d="M41.5934 15.8289L39.3375 13.5463L38.5908 14.3036L40.8468 16.5862L41.5934 15.8289Z" fill="#EEEEEE"/>
<path opacity="0.7" d="M46.846 16.5862L41.5875 11.269L40.8408 12.0264L46.0993 17.3489L46.846 16.5862Z" fill="#EEEEEE"/>
<path opacity="0.7" d="M46.0997 11.2743L43.8438 8.9917L43.0918 9.74901L45.3477 12.0316L46.0997 11.2743Z" fill="#EEEEEE"/>
<path opacity="0.2" d="M45.2837 9.80231L53.5288 18.1541L33.7533 38.1856L19.903 52.2172L11.6579 43.8654L25.5402 29.8018L45.2837 9.80231ZM45.289 7.97302C45.0117 7.97302 44.7344 8.07969 44.5264 8.29301L24.3989 28.6818L10.1699 43.0974C9.74862 43.5241 9.74328 44.2067 10.1593 44.628L19.151 53.7371C19.3537 53.9451 19.6257 54.0465 19.8977 54.0465C20.175 54.0465 20.4523 53.9398 20.6603 53.7265L34.8893 39.3109L55.0168 18.9221C55.4381 18.4954 55.4434 17.8128 55.0274 17.3914L46.0357 8.28235C45.833 8.07435 45.561 7.97302 45.289 7.97302Z" fill="#424242"/>
<path d="M22.6232 52.82L11.0395 41.0976C10.0956 40.143 7.80762 40.9003 6.86364 41.855C6.56498 42.1536 6.56498 42.6443 6.86364 42.9483L20.7939 57.0439C21.0926 57.3425 21.5726 57.3425 21.8712 57.0439C22.8206 56.0892 23.5672 53.7746 22.6232 52.82Z" fill="url(#paint6_linear_178_114)"/>
<path opacity="0.2" d="M9.7809 42.2551C9.86623 42.2551 9.91956 42.2658 9.94623 42.2711L21.4393 53.9028C21.5086 54.1321 21.4073 54.6814 21.1939 55.1774L8.69826 42.5324C9.05025 42.3724 9.45024 42.2551 9.7809 42.2551ZM9.7809 40.6552C8.74626 40.6552 7.50363 41.2098 6.86364 41.8551C6.56498 42.1538 6.56498 42.6444 6.86364 42.9484L20.7939 57.044C20.9433 57.1934 21.1406 57.268 21.3326 57.268C21.5246 57.268 21.7219 57.1934 21.8712 57.044C22.8152 56.0894 23.5672 53.7748 22.6232 52.8202L11.0395 41.0978C10.7302 40.7885 10.2822 40.6552 9.7809 40.6552Z" fill="#424242"/>
<defs>
<linearGradient id="paint0_linear_178_114" x1="58.4767" y1="-0.399751" x2="58.4767" y2="17.1512" gradientUnits="userSpaceOnUse">
<stop stop-color="#E1F5FE"/>
<stop offset="1" stop-color="#81D4FA"/>
</linearGradient>
<linearGradient id="paint1_linear_178_114" x1="10.0368" y1="41.0658" x2="10.0368" y2="55.3801" gradientUnits="userSpaceOnUse">
<stop stop-color="#E1F5FE"/>
<stop offset="1" stop-color="#81D4FA"/>
</linearGradient>
<linearGradient id="paint2_linear_178_114" x1="50.8216" y1="6.00195" x2="50.8216" y2="20.7882" gradientUnits="userSpaceOnUse">
<stop stop-color="#E1F5FE"/>
<stop offset="1" stop-color="#81D4FA"/>
</linearGradient>
<linearGradient id="paint3_linear_178_114" x1="22.3733" y1="25.1997" x2="22.3733" y2="62.8413" gradientUnits="userSpaceOnUse">
<stop stop-color="#E1F5FE"/>
<stop offset="1" stop-color="#81D4FA"/>
</linearGradient>
<linearGradient id="paint4_linear_178_114" x1="39.8694" y1="17.0661" x2="39.8694" y2="31.4241" gradientUnits="userSpaceOnUse">
<stop offset="0.0046296" stop-color="#EF5350"/>
<stop offset="1" stop-color="#E53935"/>
</linearGradient>
<linearGradient id="paint5_linear_178_114" x1="6.76233" y1="51.3319" x2="6.76233" y2="65.8648" gradientUnits="userSpaceOnUse">
<stop stop-color="#81D4FA"/>
<stop offset="1" stop-color="#29B6F6"/>
</linearGradient>
<linearGradient id="paint6_linear_178_114" x1="14.8501" y1="37.0658" x2="14.8501" y2="56.2812" gradientUnits="userSpaceOnUse">
<stop stop-color="#E1F5FE"/>
<stop offset="1" stop-color="#81D4FA"/>
</linearGradient>
</defs>
</svg>
