<svg width="602" height="260" viewBox="0 0 602 260" fill="none" xmlns="http://www.w3.org/2000/svg">
<path d="M298.678 0C283.406 0 272.514 10.8981 272.514 26.1548V78.3473H0V170.012C0 178.731 6.54045 185.269 15.2609 185.269H58.8638C71.9081 100.499 194.06 100.499 207.104 185.269H368.43C381.474 100.499 503.63 100.499 516.674 185.269H579.272C587.993 185.269 602 176.551 602 167.832V139.497C602 131.789 597.375 120.484 593.826 111.161C585.105 89.3731 528.34 91.4001 502.271 78.4662L449.943 4.35976C445.582 0.00018863 441.221 0 436.861 0H298.678L298.678 0ZM363.201 21.7988H428.139C430.31 21.7988 432.5 21.7988 434.671 23.9768L475.012 81.7369C479.372 86.0967 473.917 93.7253 469.556 93.7253H363.201C354.479 93.7253 347.929 87.1876 347.929 78.4681V37.056C347.929 28.3365 354.479 21.7988 363.201 21.7988ZM132.991 132.344C97.9415 132.344 69.1535 161.126 69.1535 196.17C69.1535 231.218 97.9415 260 132.991 260C168.043 260 196.821 231.218 196.821 196.17C196.821 161.126 168.043 132.344 132.991 132.344ZM442.561 132.344C407.506 132.344 378.718 161.126 378.718 196.17C378.718 231.218 407.506 260 442.561 260C477.617 260 506.405 231.218 506.405 196.17C506.405 161.126 477.617 132.344 442.561 132.344ZM132.991 167.156C149.224 167.156 162.009 179.939 162.009 196.17C162.009 212.401 149.224 225.179 132.991 225.179C116.76 225.179 103.975 212.401 103.975 196.17C103.975 179.939 116.76 167.156 132.991 167.156ZM442.561 167.156C458.796 167.156 471.576 179.939 471.576 196.17C471.576 212.401 458.796 225.179 442.561 225.179C426.327 225.179 413.547 212.401 413.547 196.17C413.547 179.939 426.327 167.156 442.561 167.156Z" fill="#EE661A"/>
</svg>
