<svg width="64" height="64" viewBox="0 0 64 64" fill="none" xmlns="http://www.w3.org/2000/svg">
<path d="M0 32C0 14.3269 14.3269 0 32 0C49.6731 0 64 14.3269 64 32C64 49.6731 49.6731 64 32 64C14.3269 64 0 49.6731 0 32Z" fill="#DF1717"/>
<path d="M3.94521 32C3.94521 16.5058 16.5058 3.94521 32 3.94521C47.4942 3.94521 60.0548 16.5058 60.0548 32C60.0548 47.4942 47.4942 60.0548 32 60.0548C16.5058 60.0548 3.94521 47.4942 3.94521 32Z" fill="#DF1717"/>
<path d="M19.8473 19.8469C20.8688 18.8254 22.525 18.8254 23.5465 19.8469L44.5085 40.8089C45.53 41.8304 45.53 43.4866 44.5085 44.5081C43.487 45.5296 41.8309 45.5296 40.8094 44.5081L19.8473 23.5461C18.8258 22.5246 18.8258 20.8684 19.8473 19.8469Z" fill="black"/>
<path d="M44.4834 19.8222C45.5049 20.8437 45.5049 22.4998 44.4834 23.5213L23.5214 44.4834C22.4999 45.5049 20.8437 45.5049 19.8222 44.4834C18.8007 43.4619 18.8007 41.8057 19.8222 40.7842L40.7843 19.8222C41.8058 18.8006 43.4619 18.8007 44.4834 19.8222Z" fill="black"/>
</svg>
