<svg width="1914" height="167" viewBox="0 0 1914 167" fill="none" xmlns="http://www.w3.org/2000/svg">
<g clip-path="url(#clip0_178_72)">
<path d="M0.000488281 48.1002L45.8672 39.1101C91.7338 30.2651 183.467 12.2852 274.774 9.67516C366.294 7.06516 457.174 19.5351 548.694 36.2101C640.001 52.8851 731.734 73.7651 823.041 82.6101C914.56 91.6001 1005.44 88.7001 1096.96 75.6502C1188.27 62.6002 1280 39.4002 1371.31 23.0152C1462.83 6.48517 1553.71 -3.08484 1645.23 0.250156C1736.53 3.58516 1828.27 20.1151 1874.13 28.2351L1920 36.5002V168.45H1874.13C1828.27 168.45 1736.53 168.45 1645.23 168.45C1553.71 168.45 1462.83 168.45 1371.31 168.45C1280 168.45 1188.27 168.45 1096.96 168.45C1005.44 168.45 914.56 168.45 823.041 168.45C731.734 168.45 640.001 168.45 548.694 168.45C457.174 168.45 366.294 168.45 274.774 168.45C183.467 168.45 91.7338 168.45 45.8672 168.45H0.000488281V48.1002Z" fill="#EE661A"/>
</g>
<defs>
<clipPath id="clip0_178_72">
<rect width="1920" height="167" fill="white" transform="translate(0.000488281)"/>
</clipPath>
</defs>
</svg>
