<svg width="1914" height="160" viewBox="0 0 1914 160" fill="none" xmlns="http://www.w3.org/2000/svg">
<g clip-path="url(#clip0_178_74)">
<path d="M1920 124.007L1874.13 130.555C1828.27 136.965 1736.53 150.062 1645.23 145.882C1553.71 141.702 1462.83 120.245 1371.31 118.155C1280 116.065 1188.27 133.342 1096.96 143.792C1005.44 154.242 914.56 157.865 823.04 159.537C731.733 161.209 640 160.652 548.693 146.579C457.173 132.367 366.293 104.5 274.773 95.0256C183.467 85.4116 91.7334 94.3289 45.8668 98.6482L0.000117079 103.107L0.000107943 -1.39311L45.8668 -1.39312C91.7334 -1.39312 183.467 -1.39313 274.773 -1.39314C366.293 -1.39314 457.173 -1.39315 548.693 -1.39316C640 -1.39317 731.733 -1.39318 823.04 -1.39318C914.56 -1.39319 1005.44 -1.3932 1096.96 -1.39321C1188.27 -1.39322 1280 -1.39322 1371.31 -1.39323C1462.83 -1.39324 1553.71 -1.39325 1645.23 -1.39326C1736.53 -1.39326 1828.27 -1.39327 1874.13 -1.39328L1920 -1.39328L1920 124.007Z" fill="#EE661A"/>
</g>
<defs>
<clipPath id="clip0_178_74">
<rect width="1920" height="160" fill="white" transform="translate(1920 160) rotate(180)"/>
</clipPath>
</defs>
</svg>
