<svg width="86" height="66" viewBox="0 0 86 66" fill="none" xmlns="http://www.w3.org/2000/svg">
<path d="M43 49.501C36.12 49.501 29.24 43.726 25.8 41.251C8.6 29.701 3.44 25.576 0 23.101V57.751C0 62.3065 3.85119 66.001 8.6 66.001H77.4C82.1488 66.001 86 62.3065 86 57.751V23.101C82.56 25.576 77.4 29.701 60.2 41.251C56.76 43.726 49.88 49.501 43 49.501ZM77.4 0.000976562H8.6C3.85119 0.000976562 0 3.69543 0 8.25098V12.376C6.88 17.326 6.02 17.326 30.96 34.651C33.54 36.301 38.7 41.251 43 41.251C47.3 41.251 52.46 36.301 55.04 35.476C79.98 18.151 79.12 18.151 86 13.201V8.25098C86 3.69543 82.1488 0.000976562 77.4 0.000976562Z" fill="#EE661A"/>
</svg>
