<svg width="1840" height="1006" viewBox="0 0 1840 1006" fill="none" xmlns="http://www.w3.org/2000/svg">
<path d="M567.204 257.268L628.685 296.063L589.775 357.725L528.294 318.929L463.881 352.83L430.089 288.48L494.481 254.485L497.45 181.731L570.079 184.535L567.204 257.268Z" fill="#EF661A"/>
<path d="M1633.3 620.084L1612.19 525.206L1707.06 504.086L1728.18 598.964L1820.81 628.032L1791.67 720.78L1699.02 691.615L1627.49 757.327L1561.75 685.698L1633.3 620.084Z" fill="#EE661A"/>
<path d="M922.75 672.343L857.84 650.458L879.757 585.453L944.667 607.338L996.115 562.105L1041.38 613.458L989.995 658.818L1003.42 726.032L936.306 739.494L922.75 672.343Z" fill="#EE661A"/>
<path d="M1322.48 495.353L1265.67 561.903L1199.2 505.159L1256.01 438.609L1226.8 356.223L1309.19 327.02L1338.39 409.406L1424.34 425.317L1408.43 511.265L1322.48 495.353Z" fill="#EF661A"/>
<path d="M167.613 131.498L255.866 77.2369L310.128 165.49L221.874 219.752L224.781 323.38L121.185 326.149L118.331 222.606L27.2232 173.324L76.4528 82.1309L167.613 131.498Z" fill="#F76E22"/>
<path d="M174.837 421.676L199.454 404.599L216.53 429.216L191.914 446.292L194.407 476.168L164.539 478.621L162.062 448.769L134.968 435.994L147.727 408.877L174.837 421.676Z" fill="#EE661A"/>
<path d="M1641.92 890.614L1628.75 917.525L1601.84 904.357L1615.01 877.446L1598.27 852.577L1623.15 835.874L1639.87 860.73L1669.75 858.676L1671.83 888.573L1641.92 890.614Z" fill="#EE661A"/>
<path d="M1361.24 110.257L1385.95 127.2L1369.01 151.908L1344.3 134.965L1317.26 147.909L1304.35 120.861L1331.38 107.94L1333.7 78.0754L1363.58 80.3679L1361.24 110.257Z" fill="#EE661A"/>
<path d="M457.906 736.992L357.615 711.015L383.592 610.724L483.883 636.701L556.545 562.759L630.365 635.492L557.728 709.338L585.382 809.161L485.534 836.912L457.906 736.992Z" fill="#EE661A"/>
<path d="M977.212 144.094L1076.05 123.305L1096.84 222.142L998.001 242.931L966.67 338.834L870.747 307.405L902.078 211.503L834.767 136.348L909.901 68.9395L977.212 144.094Z" fill="#EE661A"/>
<path d="M1360 841.66L1415.38 902.134L1354.91 957.513L1299.53 897.039L1219.4 914.82L1201.69 834.627L1281.75 816.914L1306.42 738.726L1384.75 763.405L1360 841.66Z" fill="#EE661A"/>
</svg>
