<svg width="383" height="1116" viewBox="0 0 383 1116" fill="none" xmlns="http://www.w3.org/2000/svg">
<path d="M112.034 1116H0.412109V1004.4H72.4001V892.8H18.2069V781.2H79.6798V669.6H44.0902V558H62.6939V446.4H74.0178V334.8H91.8126V223.2H19.8246V111.6H48.1345V0H383V111.6V223.2V334.8V446.4V558V669.6V781.2V892.8V1004.4V1116H112.034Z" fill="#ED4D1A"/>
<path d="M85.3418 1116H136.3V1004.4H154.094V892.8H186.449V781.2H211.523V669.6H129.02V558H179.169V446.4H99.0923V334.8H95.8569V223.2H172.698V111.6H143.579V0H383V111.6V223.2V334.8V446.4V558V669.6V781.2V892.8V1004.4V1116H85.3418Z" fill="#EE5A19"/>
<path d="M309.395 1116H302.924V1004.4H333.661V892.8H260.055V781.2H243.878V669.6H247.113V558H229.318V446.4H251.157V334.8H314.248V223.2H229.318V111.6H277.041V0H383.001V111.6V223.2V334.8V446.4V558V669.6V781.2V892.8V1004.4V1116H309.395Z" fill="#EE661A"/>
</svg>
