<svg width="74" height="74" viewBox="0 0 74 74" fill="none" xmlns="http://www.w3.org/2000/svg">
<path d="M37 0C26.9483 0 25.6934 0.04625 21.7467 0.222C17.8062 0.407 15.1237 1.02675 12.765 1.9425C10.3322 2.886 8.26642 4.15325 6.20983 6.20983C4.15325 8.26642 2.88292 10.3292 1.9425 12.765C1.02675 15.1237 0.403917 17.8062 0.222 21.7467C0.037 25.6934 0 26.9483 0 37C0 47.0517 0.04625 48.3066 0.222 52.2533C0.407 56.1907 1.02675 58.8763 1.9425 61.235C2.886 63.6647 4.15325 65.7336 6.20983 67.7902C8.26642 69.8437 10.3292 71.1171 12.765 72.0575C15.1268 72.9702 17.8093 73.5961 21.7467 73.778C25.6934 73.963 26.9483 74 37 74C47.0517 74 48.3066 73.9537 52.2533 73.778C56.1907 73.593 58.8763 72.9702 61.235 72.0575C63.6647 71.114 65.7336 69.8437 67.7902 67.7902C69.8437 65.7336 71.1171 63.6739 72.0575 61.235C72.9702 58.8763 73.5961 56.1907 73.778 52.2533C73.963 48.3066 74 47.0517 74 37C74 26.9483 73.9537 25.6934 73.778 21.7467C73.593 17.8093 72.9702 15.1207 72.0575 12.765C71.114 10.3322 69.8437 8.26642 67.7902 6.20983C65.7336 4.15325 63.6739 2.88292 61.235 1.9425C58.8763 1.02675 56.1907 0.403917 52.2533 0.222C48.3066 0.037 47.0517 0 37 0ZM37 6.66C46.8759 6.66 48.0537 6.70933 51.9542 6.87892C55.5617 7.0485 57.5196 7.64667 58.8207 8.1585C60.5536 8.82758 61.7807 9.62925 63.0819 10.9212C64.3738 12.2162 65.1755 13.4464 65.8446 15.1792C66.3503 16.4804 66.9546 18.4383 67.118 22.0458C67.2937 25.9493 67.3338 27.121 67.3338 37C67.3338 46.879 67.2876 48.0537 67.1057 51.9542C66.9176 55.5617 66.3163 57.5196 65.8076 58.8207C65.1169 60.5536 64.3307 61.7807 63.0357 63.0819C61.7437 64.3738 60.495 65.1755 58.7807 65.8446C57.4857 66.3503 55.4969 66.9546 51.8894 67.118C47.9613 67.2937 46.805 67.3338 36.9075 67.3338C27.0069 67.3338 25.8507 67.2876 21.9256 67.1057C18.315 66.9176 16.3263 66.3163 15.0312 65.8076C13.2768 65.1169 12.0712 64.3307 10.7793 63.0357C9.48125 61.7437 8.65183 60.495 8.00433 58.7807C7.49558 57.4857 6.89742 55.4969 6.70933 51.8894C6.57058 48.0044 6.52125 46.805 6.52125 36.9537C6.52125 27.0994 6.57058 25.8969 6.70933 21.9657C6.89742 18.3582 7.49558 16.3725 8.00433 15.0775C8.65183 13.32 9.48125 12.1175 10.7793 10.8194C12.0712 9.5275 13.2768 8.695 15.0312 8.05058C16.3263 7.53875 18.2718 6.9375 21.8793 6.7525C25.8106 6.61375 26.9668 6.5675 36.8612 6.5675L37 6.66ZM37 18.0005C26.5012 18.0005 18.0005 26.5105 18.0005 37C18.0005 47.4987 26.5105 55.9995 37 55.9995C47.4987 55.9995 55.9995 47.4895 55.9995 37C55.9995 26.5012 47.4895 18.0005 37 18.0005ZM37 49.3333C30.1858 49.3333 24.6667 43.8142 24.6667 37C24.6667 30.1858 30.1858 24.6667 37 24.6667C43.8142 24.6667 49.3333 30.1858 49.3333 37C49.3333 43.8142 43.8142 49.3333 37 49.3333ZM61.1918 17.2512C61.1918 19.7025 59.2 21.6912 56.7518 21.6912C54.3006 21.6912 52.3118 19.6994 52.3118 17.2512C52.3118 14.8031 54.3037 12.8143 56.7518 12.8143C59.1969 12.8112 61.1918 14.8031 61.1918 17.2512Z" fill="white"/>
</svg>
