<svg width="255" height="1116" viewBox="0 0 255 1116" fill="none" xmlns="http://www.w3.org/2000/svg">
<path d="M74.6891 1116H0V1004.4H48.169V892.8H11.907V781.2H53.0401V669.6H29.2262V558H41.6743V446.4H49.2515V334.8H61.1585V223.2H12.9894V111.6H31.9323V0H256V111.6V223.2V334.8V446.4V558V669.6V781.2V892.8V1004.4V1116H74.6891Z" fill="#ED4D1A"/>
<path d="M56.8281 1116H90.9253V1004.4H102.832V892.8H124.481V781.2H141.259V669.6H86.0543V558H119.61V446.4H66.029V334.8H63.8641V223.2H115.28V111.6H95.7963V0H255.999V111.6V223.2V334.8V446.4V558V669.6V781.2V892.8V1004.4V1116H56.8281Z" fill="#EE5A19"/>
<path d="M206.748 1116H202.419V1004.4H222.985V892.8H173.734V781.2H162.909V669.6H165.074V558H153.167V446.4H167.78V334.8H209.996V223.2H153.167V111.6H185.099V0H256V111.6V223.2V334.8V446.4V558V669.6V781.2V892.8V1004.4V1116H206.748Z" fill="#EE661A"/>
</svg>
