<svg width="386" height="1116" viewBox="0 0 386 1116" fill="none" xmlns="http://www.w3.org/2000/svg">
<g clip-path="url(#clip0_178_24)">
<path d="M348.655 0H257.667V111.6H288.265V223.2H294.706V334.8H351.876V446.4H279.407V558H385.695V669.6H327.72V781.2H372.811V892.8H285.849V1004.4H363.954V1116H0V1004.4V892.8V781.2V669.6V558V446.4V334.8V223.2V111.6V0H348.655Z" fill="#ED4D1A"/>
<path d="M292.291 0H268.94V111.6H225.458V223.2H148.158V334.8H211.77V446.4H224.653V558H165.068V669.6H264.108V781.2H185.198V892.8H184.393V1004.4H295.511V1116H0V1004.4V892.8V781.2V669.6V558V446.4V334.8V223.2V111.6V0H292.291Z" fill="#EE5A19"/>
<path d="M90.9885 0H78.9104V111.6H87.7677V223.2H145.743V334.8H102.261V446.4H67.6375V558H86.1573V669.6H181.977V781.2H179.561V892.8H125.612V1004.4H99.0406V1116H0V1004.4V892.8V781.2V669.6V558V446.4V334.8V223.2V111.6V0H90.9885Z" fill="#EE661A"/>
</g>
<defs>
<clipPath id="clip0_178_24">
<rect width="386" height="1116" fill="white"/>
</clipPath>
</defs>
</svg>
