<svg width="296" height="1116" viewBox="0 0 296 1116" fill="none" xmlns="http://www.w3.org/2000/svg">
<g clip-path="url(#clip0_178_24)">
<path d="M267.363 0H197.589V111.6H221.053V223.2H225.992V334.8H269.832V446.4H214.261V558H295.766V669.6H251.308V781.2H285.887V892.8H219.2V1004.4H279.094V1116H0V1004.4V892.8V781.2V669.6V558V446.4V334.8V223.2V111.6V0H267.363Z" fill="#ED4D1A"/>
<path d="M224.14 0H206.233V111.6H172.89V223.2H113.614V334.8H162.393V446.4H172.273V558H126.58V669.6H202.529V781.2H142.017V892.8H141.4V1004.4H226.61V1116H0V1004.4V892.8V781.2V669.6V558V446.4V334.8V223.2V111.6V0H224.14Z" fill="#EE5A19"/>
<path d="M69.7736 0H60.5116V111.6H67.3037V223.2H111.761V334.8H78.4181V446.4H51.8671V558H66.0688V669.6H139.547V781.2H137.695V892.8H96.3246V1004.4H75.9483V1116H0V1004.4V892.8V781.2V669.6V558V446.4V334.8V223.2V111.6V0H69.7736Z" fill="#EE661A"/>
</g>
<defs>
<clipPath id="clip0_178_24">
<rect width="296" height="1116" fill="white"/>
</clipPath>
</defs>
</svg>
