<svg width="74" height="72" viewBox="0 0 74 72" fill="none" xmlns="http://www.w3.org/2000/svg">
<path d="M71.8896 50.8773L55.7019 44.1271C55.0103 43.8404 54.2418 43.78 53.5119 43.955C52.782 44.13 52.1303 44.5309 51.6549 45.0975L44.486 53.6195C33.2352 48.4582 24.1808 39.6485 18.8761 28.7017L27.6349 21.7266C28.2183 21.2649 28.6313 20.6308 28.8112 19.9203C28.9912 19.2098 28.9283 18.4616 28.6321 17.789L21.6945 2.03874C21.3695 1.31368 20.7946 0.721688 20.069 0.364851C19.3434 0.00801287 18.5126 -0.0913062 17.7198 0.0840194L2.68833 3.45908C1.92399 3.63081 1.24204 4.04954 0.753794 4.64694C0.265545 5.24433 -0.000176072 5.9851 8.75326e-08 6.74836C8.75326e-08 42.8193 30.0486 71.9995 67.0637 71.9995C67.8484 72 68.6101 71.7416 69.2243 71.2665C69.8386 70.7915 70.2692 70.1278 70.4457 69.3838L73.9146 54.7586C74.0936 53.9835 73.9893 53.1719 73.6198 52.4635C73.2502 51.7551 72.6384 51.1942 71.8896 50.8773Z" fill="#EE661A"/>
</svg>
