<svg width="58" height="72" viewBox="0 0 58 72" fill="none" xmlns="http://www.w3.org/2000/svg">
<g clip-path="url(#clip0_179_6)">
<path d="M58 29.5351C58 52.4009 29 72.0001 29 72.0001C29 72.0001 0 52.4009 0 29.5351C1.14609e-07 21.738 3.05535 14.2603 8.4939 8.74696C13.9325 3.2336 21.3087 0.13623 29 0.13623C36.6913 0.13623 44.0675 3.2336 49.5061 8.74696C54.9447 14.2603 58 21.738 58 29.5351Z" fill="#EE661A"/>
<path d="M29.0002 39.3346C34.3389 39.3346 38.6668 34.9472 38.6668 29.535C38.6668 24.1228 34.3389 19.7354 29.0002 19.7354C23.6614 19.7354 19.3335 24.1228 19.3335 29.535C19.3335 34.9472 23.6614 39.3346 29.0002 39.3346Z" fill="#2F2F2F"/>
</g>
<defs>
<clipPath id="clip0_179_6">
<rect width="58" height="72" fill="white"/>
</clipPath>
</defs>
</svg>
