<svg width="74" height="64" viewBox="0 0 74 64" fill="none" xmlns="http://www.w3.org/2000/svg">
<path d="M73.8551 7.62332C71.0846 8.92128 68.1497 9.77805 65.1447 10.1661C68.3085 8.14253 70.6774 4.96917 71.8139 1.23202C68.8817 3.05295 65.6318 4.37845 62.1723 5.11667C59.8899 2.51956 56.8655 0.797031 53.5687 0.216565C50.272 -0.363902 46.8873 0.230177 43.9404 1.90655C40.9935 3.58292 38.6491 6.24778 37.2715 9.48731C35.8939 12.7268 35.56 16.3597 36.3217 19.8219C23.7108 19.1887 12.5399 12.7416 5.05667 3.00373C3.69628 5.46384 2.98671 8.26975 3.00317 11.1241C3.00317 16.7345 5.68567 21.6658 9.7495 24.5629C7.34098 24.4813 4.98566 23.7884 2.87983 22.5418V22.7387C2.87847 26.4671 4.08933 30.0813 6.30698 32.9679C8.52463 35.8546 11.6125 37.8359 15.0467 38.5759C12.8214 39.2103 10.4908 39.3056 8.22633 38.8547C9.20104 42.0635 11.0928 44.8685 13.6376 46.8783C16.1825 48.8881 19.2534 50.0024 22.422 50.0658C17.0555 54.5474 10.4293 56.9797 3.6075 56.9722C2.405 56.9722 1.20558 56.8967 0 56.7524C6.9551 61.4911 15.0421 64.0066 23.3008 64C51.2142 64 66.4613 39.4059 66.4613 18.1158C66.4613 17.4268 66.4613 16.7378 66.415 16.0488C69.3935 13.7681 71.9626 10.9365 74 7.68894L73.8551 7.62332Z" fill="white"/>
</svg>
